<svg width="59" height="28" viewBox="0 0 59 28" fill="none" xmlns="http://www.w3.org/2000/svg">
<g id="Vector">
<path d="M58.1707 27.3431C58.1707 20.1077 55.1539 13.1685 49.7838 8.05229C44.4138 2.93604 37.1305 0.0617681 29.5362 0.0617676C22.5417 0.0617671 15.8109 2.41838 10.5959 6.80062C10.1486 7.17648 9.71263 7.64814 9.28843 8.05229C3.91841 13.1685 0.901551 20.1077 0.90155 27.3431H8.0602C8.0602 21.9165 10.3228 16.7122 14.3504 12.875C14.4875 12.7443 14.6262 12.5341 14.7666 12.4074C15.7737 11.4984 16.8639 10.6907 18.0198 9.99106C19.3898 9.16187 20.8522 8.56611 22.3775 8.05229C23.3347 7.72985 24.3167 7.47177 25.3163 7.2809C26.6957 7.01752 28.1086 6.8821 29.5362 6.8821C35.2319 6.8821 40.6944 9.03781 44.7219 12.875C48.7494 16.7122 51.0121 21.9165 51.0121 27.3431H58.1707Z" fill="#64ED3A"/>
<path d="M15.6678 3.39339C13.8447 4.35489 12.1453 5.49872 10.5959 6.80062C8.33197 8.7029 6.38812 10.9426 4.84601 13.4438C2.2485 17.6568 0.886229 22.4571 0.90155 27.3431L8.06017 27.3228C8.04868 23.6582 9.07038 20.058 11.0185 16.8983C12.0449 15.2336 13.3085 13.7234 14.7666 12.4074C15.7645 11.5068 16.8535 10.697 18.0198 9.99106C18.3841 9.77059 18.7559 9.56029 19.1348 9.36044L15.6678 3.39339Z" fill="#D73434"/>
<path d="M44.0079 3.76525C39.6657 1.37678 34.7414 0.116426 29.7275 0.110262C27.6507 0.107709 25.6282 0.276592 23.6623 0.644319C20.8821 1.16435 18.2151 2.00053 15.6678 3.39339L19.2312 9.39025C22.4927 7.60691 25.9579 6.92597 29.7183 6.93059C33.4787 6.93522 37.1719 7.88048 40.4285 9.67183L44.0079 3.76525Z" fill="#DCB277"/>
</g>
</svg>
