<svg width="44" height="29" viewBox="0 0 44 29" fill="none" xmlns="http://www.w3.org/2000/svg">
<g id="search bar">
<path id="Vector" opacity="0.2" d="M41.7969 1.30347V27.3734H1.67188V1.30347H41.7969Z" fill="url(#paint0_angular_433_437)"/>
<path id="Vector_2" d="M43.4688 1.3035V7.82097C43.4688 8.16668 43.2926 8.49823 42.9791 8.74268C42.6655 8.98714 42.2403 9.12447 41.7969 9.12447C41.3535 9.12447 40.9282 8.98714 40.6147 8.74268C40.3011 8.49823 40.125 8.16668 40.125 7.82097V2.60699H33.4375C32.9941 2.60699 32.5688 2.46966 32.2553 2.22521C31.9418 1.98075 31.7656 1.6492 31.7656 1.3035C31.7656 0.957787 31.9418 0.626238 32.2553 0.381785C32.5688 0.137332 32.9941 0 33.4375 0H41.7969C42.2403 0 42.6655 0.137332 42.9791 0.381785C43.2926 0.626238 43.4688 0.957787 43.4688 1.3035ZM10.0312 26.0699H3.34375V20.8559C3.34375 20.5102 3.16761 20.1787 2.85407 19.9342C2.54053 19.6898 2.11528 19.5524 1.67188 19.5524C1.22847 19.5524 0.803218 19.6898 0.489681 19.9342C0.176143 20.1787 0 20.5102 0 20.8559V27.3734C0 27.7191 0.176143 28.0507 0.489681 28.2951C0.803218 28.5396 1.22847 28.6769 1.67188 28.6769H10.0312C10.4747 28.6769 10.8999 28.5396 11.2134 28.2951C11.527 28.0507 11.7031 27.7191 11.7031 27.3734C11.7031 27.0277 11.527 26.6961 11.2134 26.4517C10.8999 26.2072 10.4747 26.0699 10.0312 26.0699ZM41.7969 19.5524C41.3535 19.5524 40.9282 19.6898 40.6147 19.9342C40.3011 20.1787 40.125 20.5102 40.125 20.8559V26.0699H33.4375C32.9941 26.0699 32.5688 26.2072 32.2553 26.4517C31.9418 26.6961 31.7656 27.0277 31.7656 27.3734C31.7656 27.7191 31.9418 28.0507 32.2553 28.2951C32.5688 28.5396 32.9941 28.6769 33.4375 28.6769H41.7969C42.2403 28.6769 42.6655 28.5396 42.9791 28.2951C43.2926 28.0507 43.4688 27.7191 43.4688 27.3734V20.8559C43.4688 20.5102 43.2926 20.1787 42.9791 19.9342C42.6655 19.6898 42.2403 19.5524 41.7969 19.5524ZM1.67188 9.12447C2.11528 9.12447 2.54053 8.98714 2.85407 8.74268C3.16761 8.49823 3.34375 8.16668 3.34375 7.82097V2.60699H10.0312C10.4747 2.60699 10.8999 2.46966 11.2134 2.22521C11.527 1.98075 11.7031 1.6492 11.7031 1.3035C11.7031 0.957787 11.527 0.626238 11.2134 0.381785C10.8999 0.137332 10.4747 0 10.0312 0H1.67188C1.22847 0 0.803218 0.137332 0.489681 0.381785C0.176143 0.626238 0 0.957787 0 1.3035V7.82097C0 8.16668 0.176143 8.49823 0.489681 8.74268C0.803218 8.98714 1.22847 9.12447 1.67188 9.12447ZM11.7031 6.51748C11.2597 6.51748 10.8345 6.65481 10.5209 6.89926C10.2074 7.14372 10.0312 7.47527 10.0312 7.82097V20.8559C10.0312 21.2016 10.2074 21.5332 10.5209 21.7776C10.8345 22.0221 11.2597 22.1594 11.7031 22.1594C12.1465 22.1594 12.5718 22.0221 12.8853 21.7776C13.1989 21.5332 13.375 21.2016 13.375 20.8559V7.82097C13.375 7.47527 13.1989 7.14372 12.8853 6.89926C12.5718 6.65481 12.1465 6.51748 11.7031 6.51748ZM33.4375 20.8559V7.82097C33.4375 7.47527 33.2614 7.14372 32.9478 6.89926C32.6343 6.65481 32.209 6.51748 31.7656 6.51748C31.3222 6.51748 30.897 6.65481 30.5834 6.89926C30.2699 7.14372 30.0938 7.47527 30.0938 7.82097V20.8559C30.0938 21.2016 30.2699 21.5332 30.5834 21.7776C30.897 22.0221 31.3222 22.1594 31.7656 22.1594C32.209 22.1594 32.6343 22.0221 32.9478 21.7776C33.2614 21.5332 33.4375 21.2016 33.4375 20.8559ZM25.0781 6.51748C24.6347 6.51748 24.2095 6.65481 23.8959 6.89926C23.5824 7.14372 23.4062 7.47527 23.4062 7.82097V20.8559C23.4062 21.2016 23.5824 21.5332 23.8959 21.7776C24.2095 22.0221 24.6347 22.1594 25.0781 22.1594C25.5215 22.1594 25.9468 22.0221 26.2603 21.7776C26.5739 21.5332 26.75 21.2016 26.75 20.8559V7.82097C26.75 7.47527 26.5739 7.14372 26.2603 6.89926C25.9468 6.65481 25.5215 6.51748 25.0781 6.51748ZM18.3906 6.51748C17.9472 6.51748 17.522 6.65481 17.2084 6.89926C16.8949 7.14372 16.7188 7.47527 16.7188 7.82097V20.8559C16.7188 21.2016 16.8949 21.5332 17.2084 21.7776C17.522 22.0221 17.9472 22.1594 18.3906 22.1594C18.834 22.1594 19.2593 22.0221 19.5728 21.7776C19.8864 21.5332 20.0625 21.2016 20.0625 20.8559V7.82097C20.0625 7.47527 19.8864 7.14372 19.5728 6.89926C19.2593 6.65481 18.834 6.51748 18.3906 6.51748Z" fill="url(#paint1_angular_433_437)"/>
</g>
<defs>
<radialGradient id="paint0_angular_433_437" cx="0" cy="0" r="1" gradientUnits="userSpaceOnUse" gradientTransform="translate(21.7344 14.3384) rotate(90) scale(13.035 20.0625)">
<stop offset="0.265" stop-color="#BBD3A8"/>
<stop offset="0.495" stop-color="#9381AE"/>
<stop offset="0.895" stop-color="#AC2F2F"/>
<stop offset="1" stop-color="#87AAB2"/>
</radialGradient>
<radialGradient id="paint1_angular_433_437" cx="0" cy="0" r="1" gradientUnits="userSpaceOnUse" gradientTransform="translate(21.7344 14.3385) rotate(90) scale(14.3385 21.7344)">
<stop offset="0.265" stop-color="#BBD3A8"/>
<stop offset="0.495" stop-color="#9381AE"/>
<stop offset="0.895" stop-color="#AC2F2F"/>
<stop offset="1" stop-color="#87AAB2"/>
</radialGradient>
</defs>
</svg>
