<svg width="22" height="22" viewBox="0 0 22 22" fill="none" xmlns="http://www.w3.org/2000/svg">
<path id="Vector" d="M1.49251 3.57163L1.49256 3.57167L1.49739 3.56515L3.28196 1.16049L3.28853 1.15163L3.29471 1.14249C3.4166 0.962137 3.56263 0.832118 3.73428 0.742266C3.91032 0.650118 4.09888 0.603263 4.30729 0.602539H15.314C15.5216 0.602539 15.7137 0.649179 15.8969 0.743653L15.898 0.744261C16.0757 0.835308 16.2258 0.966484 16.3505 1.14687L16.3547 1.15293L16.359 1.15885L18.1654 3.61367L18.1662 3.61483C18.2756 3.76261 18.3569 3.92303 18.4113 4.09817L18.4114 4.09867C18.4671 4.2773 18.4953 4.46371 18.4953 4.65983V8.88849C18.3213 8.86869 18.1503 8.85857 17.9828 8.85857C16.9988 8.85857 16.0648 9.07115 15.1866 9.49618C14.6767 9.74275 14.2039 10.0494 13.7682 10.4149V4.99931V4.49931H13.2682H6.39573H5.89573V4.99931V13.7281V14.5822L6.64048 14.1641L9.83307 12.372L11.5169 13.3089C11.3006 13.7815 11.1249 14.2781 10.9895 14.798L10.9895 14.7982C10.8097 15.4896 10.7202 16.2027 10.7202 16.9365C10.7202 17.6434 10.8041 18.3347 10.9722 19.0094L10.9723 19.0101C11.0733 19.4127 11.2028 19.8018 11.361 20.1772H2.51964C2.16399 20.1772 1.86095 20.0431 1.58642 19.7342C1.30963 19.4228 1.16931 19.0542 1.16864 18.6014V4.58525C1.16864 4.39328 1.19671 4.21039 1.25207 4.03463C1.30568 3.86442 1.38556 3.71095 1.49251 3.57163ZM18.0326 17.5859V20.9436H17.8872V17.5859V17.0859H17.3872H14.4509V16.8H17.3872H17.8872V16.3V12.9422H18.0326V16.3V16.8H18.5326H21.4688V17.0859H18.5326H18.0326V17.5859ZM1.84909 3.41524L1.25618 4.2134H2.25046H17.3918H18.3856L17.7932 3.41538L16.2698 1.36306L16.2558 1.34412L16.24 1.32659C16.1271 1.20115 15.9951 1.09773 15.8451 1.0196C15.6815 0.934409 15.5033 0.888456 15.3163 0.888456H4.32482C4.13795 0.888456 3.96037 0.934659 3.79746 1.01885L4.02402 1.45727L3.79746 1.01885C3.64485 1.09771 3.51101 1.20308 3.3982 1.33242L3.38532 1.34719L3.37364 1.36291L1.84909 3.41524Z" fill="#4177B5" stroke="#5687BF"/>
</svg>
