<svg width="31" height="31" viewBox="0 0 31 31" fill="none" xmlns="http://www.w3.org/2000/svg">
<g id="solar:gallery-add-bold">
<path id="Vector" d="M28.4167 16.4016C28.4141 18.3003 28.3999 19.9123 28.2927 21.2363C28.1674 22.7734 27.9103 24.0573 27.3368 25.1229C27.0862 25.5899 26.7686 26.0177 26.3939 26.3926C25.318 27.4686 23.9488 27.9555 22.2128 28.188C20.5168 28.4167 18.3417 28.4167 15.5685 28.4167H15.4315C12.657 28.4167 10.4845 28.4167 8.78721 28.188C7.0525 27.9555 5.68204 27.4686 4.60738 26.3926C3.65413 25.4394 3.16071 24.2536 2.89979 22.7824C2.64146 21.3357 2.59496 19.5377 2.58592 17.3044C2.58333 16.7361 2.58247 16.1346 2.58333 15.5V15.4302C2.58333 12.6557 2.58333 10.4832 2.81196 8.78591C3.04446 7.0512 3.53142 5.68074 4.60738 4.60607C5.68333 3.53141 7.0525 3.04316 8.78721 2.81066C10.2959 2.60786 12.236 2.58461 14.5984 2.58203C14.8375 2.58203 15.0669 2.67702 15.2359 2.8461C15.405 3.01518 15.5 3.2445 15.5 3.48361C15.5 3.72273 15.405 3.95205 15.2359 4.12113C15.0669 4.29021 14.8375 4.3852 14.5984 4.3852C12.2024 4.38778 10.4212 4.40845 9.02746 4.59574C7.49167 4.80241 6.56554 5.19507 5.88096 5.87966C5.19638 6.56424 4.805 7.49166 4.59833 9.02874C4.38779 10.5917 4.38521 12.6428 4.38521 15.5V16.5127L5.58904 15.4612C6.11672 14.9995 6.80014 14.7556 7.5009 14.7789C8.20166 14.8022 8.86739 15.0909 9.36329 15.5865L14.517 20.7403C14.9169 21.1404 15.4451 21.3865 16.0086 21.4355C16.5721 21.4844 17.1349 21.3329 17.5977 21.0077L17.9568 20.7558C18.6243 20.2866 19.4312 20.0578 20.2456 20.1069C21.0601 20.1559 21.8337 20.4799 22.4401 21.0257L25.8411 24.087C26.1834 23.3675 26.3875 22.4233 26.496 21.0903C26.598 19.8348 26.6122 18.3107 26.6135 16.4016C26.6135 16.1625 26.7085 15.9331 26.8776 15.7641C27.0466 15.595 27.276 15.5 27.5151 15.5C27.7542 15.5 27.9835 15.595 28.1526 15.7641C28.3217 15.9331 28.4167 16.1625 28.4167 16.4016Z" fill="#ECCF5A"/>
<path id="Vector_2" fill-rule="evenodd" clip-rule="evenodd" d="M22.6042 14.2083C19.8645 14.2083 18.4941 14.2083 17.6429 13.3571C16.7917 12.5059 16.7917 11.1354 16.7917 8.39581C16.7917 5.65619 16.7917 4.28573 17.6429 3.43452C18.4941 2.58331 19.8645 2.58331 22.6042 2.58331C25.3438 2.58331 26.7142 2.58331 27.5655 3.43452C28.4167 4.28573 28.4167 5.65619 28.4167 8.39581C28.4167 11.1354 28.4167 12.5059 27.5655 13.3571C26.7142 14.2083 25.3438 14.2083 22.6042 14.2083ZM23.5729 5.81248C23.5729 5.55555 23.4709 5.30915 23.2892 5.12747C23.1075 4.94579 22.8611 4.84373 22.6042 4.84373C22.3472 4.84373 22.1008 4.94579 21.9192 5.12747C21.7375 5.30915 21.6354 5.55555 21.6354 5.81248V7.42706H20.0208C19.7639 7.42706 19.5175 7.52913 19.3358 7.7108C19.1541 7.89248 19.0521 8.13888 19.0521 8.39581C19.0521 8.65274 19.1541 8.89915 19.3358 9.08082C19.5175 9.2625 19.7639 9.36456 20.0208 9.36456H21.6354V10.9791C21.6354 11.2361 21.7375 11.4825 21.9192 11.6642C22.1008 11.8458 22.3472 11.9479 22.6042 11.9479C22.8611 11.9479 23.1075 11.8458 23.2892 11.6642C23.4709 11.4825 23.5729 11.2361 23.5729 10.9791V9.36456H25.1875C25.4444 9.36456 25.6908 9.2625 25.8725 9.08082C26.0542 8.89915 26.1562 8.65274 26.1562 8.39581C26.1562 8.13888 26.0542 7.89248 25.8725 7.7108C25.6908 7.52913 25.4444 7.42706 25.1875 7.42706H23.5729V5.81248Z" fill="#ECCF5A"/>
</g>
</svg>
